<svg width="125" height="18" viewBox="0 0 125 18" fill="none" xmlns="http://www.w3.org/2000/svg">
<g clip-path="url(#clip0_368_993)">
<path d="M6.00483 9.03614V2.24096L5.15932 1.76031V0H8.97104V1.76031L8.16923 2.24096V16.0938L6.11974 15.4686L3.16727 6.60621V12.4401L4.09898 13.168V14.9575L0.0149865 13.91V12.364L0.94668 12V2.22194L0 1.75523V0H3.09234L5.98611 9.03614H6.00483ZM13.0263 15.2505L13.8431 16.2397V18L9.78783 16.4578V14.9588L10.6908 14.5961V2.25618L9.78783 1.80469V0.0291668H16.838V3.62334H15.2906L14.8173 2.15345H13.0263V6.30057H14.3739L14.9034 5.51553H15.9788V9.16804H14.9034L14.4039 8.42613H13.03V15.2505H13.0263ZM17.5124 15.8757V14.1154L18.5116 13.2708V2.25618L17.6511 1.80469V0.0291668H21.7063V1.80469L20.9045 2.25618V12.5872L22.653 12.1065L22.9827 9.40013H24.6301V13.9264L17.48 15.8757H17.5087H17.5124Z" fill="black"/>
<path d="M116.563 11.1494C116.146 11.1494 115.862 11.0649 115.708 10.8958C115.558 10.7271 115.484 10.4126 115.484 9.94968V3.3016C115.438 2.86707 115.235 2.46525 114.914 2.17367C114.593 1.88208 114.178 1.72141 113.748 1.72266H112.205V10.268C112.205 10.58 112.22 10.8729 112.246 11.1494C112.276 11.462 112.328 11.7719 112.404 12.0765C112.515 12.5558 112.741 13 113.061 13.3701C113.221 13.55 113.407 13.7047 113.613 13.8292C113.823 13.9587 114.049 14.0625 114.283 14.1386C114.893 14.3217 115.528 14.4073 116.164 14.3923H125V11.1494H116.563Z" fill="black"/>
<path d="M112.435 13.9154C112.115 13.5454 111.89 13.1012 111.778 12.6218C111.703 12.3173 111.65 12.0074 111.621 11.6947C111.605 11.5197 111.593 11.3371 111.586 11.1494H105.179C104.763 11.1494 104.477 11.0649 104.323 10.8958C104.173 10.7271 104.099 10.4126 104.099 9.94967V3.3016C104.053 2.86783 103.851 2.46655 103.531 2.17503C103.212 1.88351 102.797 1.72238 102.368 1.72266H100.825V10.268C100.816 10.8768 100.882 11.4845 101.022 12.0765C101.134 12.5558 101.359 13 101.679 13.3701C102.013 13.7315 102.435 13.9967 102.902 14.1386C103.512 14.3216 104.147 14.4072 104.783 14.3923H113.015L112.987 14.3758C112.782 14.2509 112.596 14.0958 112.435 13.9154Z" fill="black"/>
<path d="M44.826 7.00781L43.4609 10.1568L44.8373 7.00781H44.826Z" fill="black"/>
<path d="M35.3559 7.00748V5.64286C35.3559 5.26831 35.5225 5.08103 35.8555 5.08103H44.8877V3.30551C44.8402 2.87229 44.6374 2.47195 44.318 2.18078C43.9985 1.8896 43.5848 1.72793 43.1555 1.72656H34.2881C32.8244 1.72656 32.0929 2.50103 32.0938 4.04996V14.3937H35.3497V10.1565H43.4552L44.8203 7.00748H35.3559Z" fill="black"/>
<path d="M69.6719 1.72176H68.2194V9.91072C68.2194 10.1365 68.1357 10.2481 67.9696 10.2481C67.9142 10.2491 67.8592 10.2396 67.8072 10.2202C67.7486 10.1923 67.6989 10.1484 67.6636 10.0933L61.7262 2.69069C61.4102 2.2843 61.0114 1.95205 60.5572 1.71669C60.0974 1.51609 59.5999 1.42 59.0997 1.43514C58.7164 1.43167 58.3348 1.48552 57.9669 1.59494C57.6317 1.69303 57.3238 1.86936 57.0677 2.10984C56.8043 2.36504 56.6036 2.67957 56.482 3.02804C56.3344 3.46828 56.2646 3.93155 56.2759 4.39646V10.6755L53.261 3.77756C52.9129 2.99126 52.455 2.40406 51.8872 2.01599C51.3193 1.62791 50.6087 1.4343 49.7552 1.43514C48.8802 1.43514 48.1604 1.62875 47.5958 2.01599C47.0313 2.40322 46.5759 2.99041 46.2295 3.77756L44.832 7.0014H44.8432L43.4694 10.1504L41.8783 13.8283C41.8335 13.9196 41.7942 14.0136 41.7609 14.1098C41.7309 14.1974 41.7034 14.2912 41.6797 14.3901H45.4315C45.4434 14.314 45.4614 14.2389 45.4852 14.1656L45.5564 13.9412L46.1808 12.4193H52.062L50.873 9.62918H47.3673L49.2207 5.09398C49.2624 4.96726 49.3446 4.85833 49.4543 4.78454C49.5475 4.72912 49.6535 4.6998 49.7615 4.69957C49.876 4.69843 49.9883 4.73102 50.085 4.79341C50.1897 4.86866 50.2708 4.97303 50.3185 5.09398L52.1332 9.49221L53.532 12.7795L54.0316 13.9564C54.0553 14.0198 54.079 14.0832 54.1027 14.153C54.1265 14.2227 54.1502 14.3013 54.1752 14.3876H59.4744V5.80673C59.4716 5.75911 59.4781 5.71139 59.4935 5.66634C59.5089 5.62128 59.533 5.57977 59.5643 5.54421C59.592 5.51434 59.6255 5.49067 59.6627 5.47473C59.6999 5.45878 59.74 5.45092 59.7804 5.45163C59.8373 5.45681 59.8925 5.47447 59.9421 5.50337C59.9917 5.53226 60.0345 5.57172 60.0676 5.61903L66.7431 13.6596C67.0128 13.9969 67.3627 14.2588 67.7598 14.4206C68.1938 14.5844 68.6544 14.6635 69.1173 14.6539C69.4125 14.6546 69.7053 14.6009 69.9816 14.4954C70.2568 14.3891 70.5054 14.2224 70.7097 14.0071C70.9324 13.7645 71.1026 13.4772 71.2093 13.1637C71.344 12.7692 71.4083 12.3535 71.3991 11.9361V3.3007C71.3517 2.86835 71.1496 2.46872 70.8312 2.17766C70.5128 1.8866 70.1003 1.72437 69.6719 1.72176Z" fill="black"/>
<path d="M100.721 14.111C100.688 14.0148 100.649 13.9208 100.604 13.8295L96.2139 3.78384C95.8667 2.99753 95.4088 2.41034 94.8401 2.02226C94.2714 1.63418 93.5608 1.44056 92.7082 1.44141C91.8331 1.44141 91.1137 1.63503 90.55 2.02226C89.9863 2.40949 89.5305 2.99669 89.1824 3.78384L86.5597 9.83329V3.3019C86.5141 2.86813 86.312 2.46685 85.9924 2.17533C85.6728 1.88381 85.2583 1.72268 84.8287 1.72296H83.2863V6.31395H76.03V3.3019C75.9844 2.86813 75.7823 2.46685 75.4627 2.17533C75.1431 1.88381 74.7286 1.72268 74.299 1.72296H72.7578V14.3939H76.03V9.50102H83.2813V14.3939H88.3944C88.4063 14.3177 88.4243 14.2426 88.4481 14.1694C88.473 14.0945 88.4955 14.0197 88.5205 13.9449L89.1562 12.4357H95.0412L93.8522 9.6456H90.334C90.334 9.63418 90.3427 9.62403 90.3477 9.61262L92.1899 5.10152C92.2319 4.97466 92.3146 4.86573 92.4247 4.79207C92.517 4.73687 92.6222 4.70755 92.7294 4.7071C92.8443 4.70564 92.9572 4.73826 93.0541 4.80095C93.1592 4.87582 93.2404 4.98031 93.2877 5.10152L95.161 9.63672L96.997 13.9652C97.0207 14.0286 97.0444 14.092 97.0682 14.1618C97.0919 14.2315 97.1169 14.3102 97.1406 14.3964H100.811C100.777 14.2924 100.751 14.1985 100.721 14.111Z" fill="black"/>
</g>
<defs>
<clipPath id="clip0_368_993">
<rect width="125" height="18" fill="white"/>
</clipPath>
</defs>
</svg>
