<svg width="61" height="62" viewBox="0 0 61 62" fill="none" xmlns="http://www.w3.org/2000/svg">
<path d="M50.7664 0C52.143 0.0727662 53.5424 0.00713551 54.8889 0.246836C56.5682 0.553382 58.0899 1.42853 59.1969 2.72443C60.3039 4.02032 60.9283 5.6575 60.9647 7.35938C61.0234 9.45105 60.9947 11.5441 60.9833 13.6372C60.9833 14.6446 60.3809 15.2595 59.4794 15.2609C58.5779 15.2624 57.9626 14.606 57.9569 13.5702C57.9483 11.6683 57.9569 9.76494 57.9569 7.86303C57.944 5.05369 56.0022 3.11468 53.1961 3.10326C51.3159 3.10326 49.4356 3.10326 47.5554 3.10326C46.4621 3.10326 45.791 2.514 45.791 1.58374C45.791 0.65347 46.4292 0.0841833 47.5554 0.0741958C48.6257 0.065635 49.7018 0.0741958 50.7678 0.0741958L50.7664 0Z" fill="black"/>
<path d="M10.3475 61.0095C8.948 60.9353 7.52422 61.0095 6.15481 60.7599C2.69766 60.1492 0.186367 57.1544 0.089063 53.6373C0.0318255 51.5457 0.0604464 49.4526 0.0733248 47.3595C0.0733248 46.3607 0.688623 45.7443 1.58868 45.75C2.48874 45.7557 3.08974 46.3992 3.0969 47.3809C3.10978 49.307 3.0969 51.2332 3.0969 53.1593C3.10834 55.9573 5.05871 57.8963 7.8705 57.9063C9.75076 57.9063 11.631 57.9063 13.5113 57.9063C14.6102 57.9063 15.2684 58.4941 15.2627 59.4372C15.2627 60.3575 14.6274 60.9211 13.5585 60.9339C12.4896 60.9468 11.4121 60.9339 10.346 60.9339L10.3475 61.0095Z" fill="black"/>
<path d="M50.7208 60.9403C49.6262 60.9403 48.5301 60.9531 47.4297 60.9403C46.3837 60.9246 45.7584 60.3239 45.7798 59.3894C45.8013 58.5119 46.4509 57.9212 47.444 57.9155C49.3486 57.9041 51.2517 57.9155 53.1563 57.9155C56.0053 57.9055 57.9371 55.9679 57.9471 53.1115C57.9471 51.1853 57.9471 49.2592 57.9471 47.333C57.9471 46.681 58.2075 46.0989 58.83 45.9262C59.2836 45.7992 59.9132 45.8163 60.291 46.0503C60.6401 46.2658 60.9349 46.8508 60.9449 47.2817C61.0007 49.5388 61.0336 51.8017 60.932 54.056C60.7732 57.6045 57.5536 60.7463 53.9934 60.9132C52.9016 60.9646 51.8041 60.9217 50.7108 60.9217L50.7208 60.9403Z" fill="black"/>
<path d="M0 10.3416C0.0744088 8.94338 -1.39876e-06 7.51945 0.248982 6.15259C0.55352 4.47773 1.42929 2.9593 2.72794 1.85448C4.0266 0.749662 5.66833 0.126369 7.37506 0.0901673C9.46852 0.031669 11.5634 0.0602011 13.6569 0.0730422C14.6585 0.0730422 15.2767 0.682284 15.2724 1.58401C15.2681 2.48574 14.6256 3.08642 13.6426 3.09355C11.7151 3.10782 9.77903 3.09355 7.85872 3.09355C5.05694 3.10354 3.11515 5.04968 3.10514 7.85903C3.10514 9.71385 3.10514 11.5687 3.10514 13.4235C3.10514 14.5792 2.53276 15.2541 1.57403 15.2498C0.615303 15.2455 0.078703 14.5949 0.0729792 13.405C0.0729792 12.3819 0.0729792 11.3604 0.0729792 10.3374L0 10.3416Z" fill="black"/>
<path d="M9.21374 15.2845C9.21374 14.4056 9.19084 13.5253 9.21374 12.6478C9.27384 10.7288 10.7019 9.26631 12.6122 9.22351C14.3942 9.18071 16.1767 9.18071 17.9596 9.22351C18.8633 9.23907 19.7253 9.60559 20.3621 10.2451C20.9989 10.8846 21.3604 11.7466 21.3695 12.6478C21.4058 14.4047 21.4058 16.162 21.3695 17.9198C21.3557 18.8335 20.9839 19.7056 20.3336 20.3496C19.6832 20.9935 18.806 21.3581 17.8895 21.3655C16.1552 21.395 14.42 21.395 12.6838 21.3655C11.7682 21.3585 10.8919 20.9939 10.2429 20.3499C9.59389 19.706 9.22389 18.8341 9.21231 17.9212C9.19084 17.0423 9.21374 16.1577 9.21374 15.2845ZM15.3009 18.3378C16.0608 18.3378 16.822 18.3378 17.5904 18.3378C18.0813 18.3378 18.356 18.1338 18.3546 17.6244C18.3546 16.055 18.3546 14.4855 18.3546 12.916C18.3546 12.4523 18.1213 12.2298 17.6391 12.2326C16.0937 12.2412 14.5483 12.244 13.0029 12.2326C12.4505 12.2326 12.2387 12.4752 12.2445 13.0116C12.2588 14.5335 12.2588 16.0554 12.2445 17.5774C12.2445 18.1338 12.5006 18.3478 13.0243 18.3435C13.7784 18.3336 14.5397 18.3378 15.3009 18.3378Z" fill="black"/>
<path d="M51.8398 15.3505C51.8398 16.2294 51.8684 17.1083 51.8398 17.9858C51.7682 19.8121 50.3344 21.2988 48.52 21.353C46.7056 21.4072 44.8582 21.4072 43.0295 21.353C42.1498 21.3187 41.3161 20.9527 40.6966 20.329C40.0772 19.7052 39.7183 18.8703 39.6925 17.9929C39.6468 16.1857 39.6468 14.3808 39.6925 12.5783C39.7136 11.7012 40.0702 10.8654 40.6892 10.242C41.3083 9.61867 42.143 9.25492 43.0223 9.22531C44.8511 9.1749 46.6812 9.1749 48.5128 9.22531C50.343 9.27525 51.7668 10.732 51.8398 12.5711C51.8698 13.4971 51.8398 14.4245 51.8398 15.3505ZM42.709 15.2335C42.709 16.0182 42.709 16.803 42.709 17.5863C42.709 18.0828 42.9322 18.3382 43.4387 18.3382C44.9842 18.3382 46.5296 18.3382 48.075 18.3382C48.5644 18.3382 48.8234 18.1313 48.8191 17.6091C48.8076 16.0653 48.8076 14.5211 48.8191 12.9763C48.8191 12.4727 48.613 12.2316 48.0964 12.2344C46.551 12.243 45.0056 12.2472 43.4602 12.2344C42.8878 12.2344 42.7018 12.5112 42.7075 13.0277C42.7147 13.7611 42.7075 14.4973 42.709 15.2335Z" fill="black"/>
<path d="M15.2419 51.7943C14.339 51.7943 13.4347 51.8257 12.5332 51.7857C11.6668 51.7548 10.8444 51.3975 10.2317 50.7859C9.61912 50.1743 9.26186 49.3538 9.23199 48.4899C9.18048 46.6626 9.18048 44.8339 9.23199 43.0039C9.25589 42.1149 9.62345 41.2695 10.2578 40.6443C10.8922 40.0192 11.7444 39.6628 12.6362 39.6495C14.4177 39.6138 16.2021 39.6095 17.9836 39.6495C18.8755 39.6733 19.7243 40.0372 20.3552 40.6662C20.9861 41.2953 21.3511 42.1416 21.3749 43.031C21.4193 44.8358 21.4221 46.6422 21.3749 48.4528C21.345 49.3288 20.9829 50.1609 20.3617 50.7811C19.7405 51.4013 18.9065 51.7634 18.028 51.7943C17.0979 51.8243 16.1692 51.7957 15.2419 51.7943ZM15.3163 48.7724C16.0776 48.7724 16.8389 48.7595 17.6058 48.7724C18.1167 48.7838 18.3542 48.5498 18.3542 48.0504C18.3542 46.5066 18.3542 44.9614 18.3542 43.4176C18.3542 42.9211 18.1281 42.6671 17.6216 42.6671C16.0762 42.6671 14.5308 42.6671 12.9853 42.6671C12.496 42.6671 12.2398 42.874 12.2427 43.3962C12.2551 44.941 12.2551 46.4852 12.2427 48.029C12.2427 48.5897 12.5103 48.7852 13.0369 48.7724C13.7952 48.7595 14.5608 48.7724 15.3163 48.7724Z" fill="black"/>
<path d="M30.5094 27.4731V24.4041H29.741C28.4803 24.4041 27.2197 24.4184 25.959 24.3913C25.079 24.3713 24.4522 23.7335 24.4365 22.9174C24.4294 22.72 24.4621 22.5232 24.5325 22.3386C24.6029 22.154 24.7096 21.9853 24.8465 21.8425C24.9833 21.6997 25.1474 21.5856 25.3292 21.5071C25.5109 21.4285 25.7066 21.387 25.9046 21.385C28.9974 21.3612 32.0901 21.3612 35.1828 21.385C35.5705 21.3958 35.9385 21.5577 36.2079 21.8359C36.4773 22.1141 36.6266 22.4865 36.6238 22.8732C36.6338 23.6864 36.0056 24.3413 35.1399 24.3884C34.6477 24.4141 34.1526 24.3884 33.6131 24.3884V27.4674C34.0982 27.4674 34.5647 27.4546 35.0312 27.4674C35.9613 27.5002 36.6052 28.1109 36.6224 28.9513C36.6352 29.8173 35.9656 30.4808 35.0054 30.4894C33.0307 30.5046 31.056 30.5046 29.0813 30.4894C28.1483 30.4808 27.5173 29.8587 27.5073 29.0012C27.493 28.0981 28.1068 27.4988 29.0999 27.466C29.5421 27.4617 29.99 27.4731 30.5094 27.4731Z" fill="black"/>
<path d="M45.7755 48.7511H48.8133C48.8133 48.2688 48.8019 47.8023 48.8133 47.3371C48.8405 46.3983 49.4358 45.7677 50.2944 45.7506C51.2016 45.732 51.8169 46.3427 51.8384 47.33C51.8598 48.3174 51.8612 49.279 51.8384 50.2521C51.8155 51.2251 51.2531 51.7959 50.2643 51.7987C46.2462 51.813 42.2277 51.813 38.2087 51.7987C37.2256 51.7987 36.669 51.228 36.6461 50.2378C36.6232 49.2476 36.6232 48.2888 36.6461 47.3157C36.6675 46.3655 37.2628 45.7591 38.1343 45.7463C39.0057 45.7334 39.6439 46.3769 39.6725 47.3471C39.6854 47.7937 39.6725 48.2403 39.6725 48.7283H42.7104C42.7104 48.276 42.6961 47.8337 42.7104 47.3928C42.7476 46.394 43.3357 45.7606 44.2129 45.7477C45.1258 45.7334 45.734 46.3741 45.7726 47.4071C45.7898 47.8308 45.7755 48.2589 45.7755 48.7511Z" fill="black"/>
<path d="M33.522 36.5991C33.0054 36.5991 32.5547 36.6219 32.1082 36.5991C31.1681 36.542 30.5442 35.927 30.5342 35.0838C30.5242 34.2406 31.1481 33.59 32.0825 33.5529C33.0841 33.5143 34.0858 33.5129 35.0774 33.5529C36.0061 33.59 36.6014 34.1664 36.6171 35.0952C36.6534 37.1137 36.6534 39.1326 36.6171 41.1519C36.5985 42.1122 35.9775 42.6615 34.993 42.6658C32.0214 42.68 29.0494 42.68 26.0768 42.6658C25.1009 42.6658 24.437 42.0251 24.4355 41.1634C24.4355 40.2745 25.1195 39.6467 26.1412 39.6424C28.3277 39.6338 30.5156 39.6424 32.7035 39.6424H33.5191L33.522 36.5991Z" fill="black"/>
<path d="M33.567 12.2372H32.737C30.5506 12.2372 28.3641 12.2372 26.1776 12.2372C25.1431 12.2372 24.4605 11.6408 24.4362 10.7519C24.4118 9.86301 25.1101 9.21383 26.1819 9.20955C29.081 9.20098 31.9801 9.20098 34.8791 9.20955C36.0582 9.20955 36.622 9.78026 36.632 10.9659C36.6478 12.8207 36.6449 14.6756 36.632 16.5218C36.632 17.6133 36.031 18.3067 35.1253 18.3253C34.1966 18.3453 33.5756 17.6319 33.567 16.5033C33.5598 15.1065 33.567 13.7111 33.567 12.2372Z" fill="black"/>
<path d="M48.8138 39.6349C48.8138 40.2056 48.8281 40.6593 48.8138 41.1102C48.778 42.0405 48.2171 42.6469 47.2985 42.6583C45.2761 42.684 43.2537 42.684 41.2313 42.6583C40.3012 42.6497 39.7102 42.0576 39.6859 41.143C39.6587 40.1443 39.6601 39.1455 39.6859 38.1468C39.7073 37.2251 40.347 36.6058 41.2155 36.613C42.0841 36.6201 42.6737 37.2222 42.708 38.1824C42.7252 38.6305 42.708 39.0799 42.708 39.5864H45.7845C45.7845 39.1099 45.7702 38.6404 45.7845 38.171C45.8203 37.2179 46.3569 36.6501 47.2884 36.623C48.3101 36.5944 49.3333 36.5944 50.3578 36.623C51.255 36.6501 51.8388 37.2679 51.8403 38.1154C51.8417 38.9629 51.2421 39.585 50.3649 39.6335C49.8741 39.6577 49.379 39.6349 48.8138 39.6349Z" fill="black"/>
<path d="M27.4934 48.7745C27.4934 49.311 27.512 49.759 27.4934 50.2013C27.4419 51.1844 26.8266 51.8036 25.9395 51.7936C25.0809 51.7822 24.4727 51.1744 24.4398 50.2241C24.4069 49.2511 24.4041 48.2766 24.4398 47.3035C24.4785 46.3048 25.0723 45.7497 26.0926 45.7426C28.0415 45.7264 29.99 45.7264 31.9379 45.7426C32.9396 45.7512 33.5592 46.3433 33.5606 47.2422C33.5621 48.141 32.9081 48.7588 31.8764 48.766C30.4469 48.7831 29.0274 48.7745 27.4934 48.7745Z" fill="black"/>
<path d="M18.3544 27.4734C17.8579 27.4734 17.4372 27.4834 17.0179 27.4734C15.9848 27.4434 15.3008 26.8384 15.3008 25.9567C15.3008 25.0749 15.9633 24.4329 16.995 24.4101C17.8979 24.3901 18.8023 24.3887 19.7052 24.4101C20.8171 24.4372 21.3794 25.0378 21.3937 26.1693C21.3937 26.5716 21.3937 26.9726 21.3937 27.4777C21.9303 27.4777 22.4226 27.4591 22.9119 27.4777C23.8177 27.5176 24.4058 28.104 24.4187 28.9487C24.4316 29.8176 23.8192 30.4668 22.9005 30.4924C21.926 30.5196 20.9516 30.5138 19.9771 30.4924C18.9754 30.4739 18.4031 29.8975 18.363 28.8916C18.343 28.4564 18.3544 28.0113 18.3544 27.4734Z" fill="black"/>
<path d="M48.8117 30.5004C48.2537 30.5004 47.7815 30.5175 47.3107 30.5004C46.392 30.4604 45.7739 29.8255 45.7853 28.958C45.7968 28.1133 46.3863 27.5241 47.2907 27.4827C47.7614 27.4613 48.2351 27.4827 48.8117 27.4827C48.8117 26.9619 48.8003 26.4968 48.8117 26.0317C48.8389 25.0729 49.49 24.4037 50.3572 24.4223C51.2 24.4394 51.8267 25.0829 51.8353 26.016C51.8544 27.9887 51.8544 29.9625 51.8353 31.9371C51.8253 32.9359 51.2114 33.5451 50.3057 33.5337C49.4228 33.5223 48.8303 32.876 48.8089 31.8886C48.8032 31.4563 48.8117 31.0311 48.8117 30.5004Z" fill="black"/>
<path d="M13.761 36.6056C12.8094 36.6056 11.8564 36.6213 10.8991 36.6056C9.85307 36.5828 9.21057 35.9792 9.21487 35.0675C9.21916 34.1558 9.86594 33.5566 10.9148 33.548C12.8227 33.5309 14.7273 33.5309 16.6286 33.548C17.6574 33.558 18.3371 34.1986 18.3314 35.0832C18.3256 35.9678 17.6474 36.5842 16.6142 36.6056C15.667 36.6199 14.714 36.6056 13.761 36.6056Z" fill="black"/>
<path d="M42.703 28.997C42.703 29.9715 42.7187 30.9475 42.703 31.922C42.683 32.9207 42.082 33.5357 41.1776 33.5257C40.2733 33.5157 39.6837 32.8708 39.6766 31.8849C39.6651 29.9349 39.6651 27.985 39.6766 26.035C39.6851 25.0734 40.3448 24.4028 41.2119 24.4142C42.0533 24.427 42.6787 25.072 42.6987 26.0008C42.7187 26.9995 42.703 27.9983 42.703 28.997Z" fill="black"/>
<path d="M27.433 18.3274C26.9336 18.3274 26.4314 18.3588 25.9363 18.3203C25.0534 18.2518 24.4395 17.6069 24.4395 16.8036C24.4364 16.4054 24.5921 16.0222 24.8722 15.7384C25.1523 15.4545 25.534 15.2931 25.9334 15.2898C26.9765 15.2427 28.0269 15.2412 29.07 15.2898C29.4571 15.2983 29.8257 15.4568 30.0976 15.7316C30.3695 16.0065 30.5235 16.3761 30.5267 16.7622C30.5467 17.5798 29.9543 18.2375 29.0729 18.3131C28.5305 18.3602 27.9811 18.3217 27.433 18.3217V18.3274Z" fill="black"/>
<path d="M24.4213 36.5976C23.9219 36.5976 23.4197 36.6262 22.9246 36.5976C21.9902 36.5334 21.3777 35.8928 21.3949 35.0453C21.4106 34.2277 22.0116 33.5971 22.9131 33.56C23.9348 33.5172 24.9594 33.5158 25.9796 33.56C26.379 33.563 26.761 33.7234 27.0422 34.0062C27.3234 34.289 27.4811 34.6713 27.4807 35.0695C27.4807 35.8757 26.8754 36.522 25.9911 36.5919C25.4702 36.6319 24.945 36.5919 24.417 36.5919L24.4213 36.5976Z" fill="black"/>
<path d="M9.22043 27.4278C9.22043 26.9056 9.19611 26.382 9.22043 25.8584C9.21607 25.461 9.37018 25.0783 9.64887 24.7942C9.92755 24.5102 10.308 24.3482 10.7065 24.3438C11.1049 24.3395 11.4888 24.4932 11.7737 24.771C12.0586 25.0489 12.221 25.4282 12.2254 25.8256C12.2712 26.9156 12.2712 28.0114 12.2254 29.1072C12.2205 29.5045 12.0574 29.8836 11.7722 30.1611C11.4869 30.4386 11.1028 30.5917 10.7043 30.5868C10.3058 30.5818 9.92563 30.4193 9.64735 30.1348C9.36906 29.8504 9.2155 29.4674 9.22043 29.0701C9.19467 28.5165 9.22043 27.9686 9.22043 27.4278Z" fill="black"/>
</svg>
