<svg width="24" height="26" viewBox="0 0 24 26" fill="none" xmlns="http://www.w3.org/2000/svg">
<path d="M19.0234 8.16242C20.9885 8.16242 22.5815 6.56939 22.5815 4.60428C22.5815 2.63918 20.9885 1.04614 19.0234 1.04614C17.0583 1.04614 15.4652 2.63918 15.4652 4.60428C15.4652 6.56939 17.0583 8.16242 19.0234 8.16242Z" fill="#A71930" stroke="#EEEEEE" stroke-width="2" stroke-linecap="round" stroke-linejoin="round"/>
<path d="M4.79084 16.4648C6.75594 16.4648 8.34898 14.8717 8.34898 12.9066C8.34898 10.9415 6.75594 9.34848 4.79084 9.34848C2.82573 9.34848 1.2327 10.9415 1.2327 12.9066C1.2327 14.8717 2.82573 16.4648 4.79084 16.4648Z" fill="#A71930" stroke="#EEEEEE" stroke-width="2" stroke-linecap="round" stroke-linejoin="round"/>
<path d="M19.0234 24.7671C20.9885 24.7671 22.5815 23.174 22.5815 21.2089C22.5815 19.2438 20.9885 17.6508 19.0234 17.6508C17.0583 17.6508 15.4652 19.2438 15.4652 21.2089C15.4652 23.174 17.0583 24.7671 19.0234 24.7671Z" fill="#A71930" stroke="#EEEEEE" stroke-width="2" stroke-linecap="round" stroke-linejoin="round"/>
<path d="M7.86252 14.6973L15.9632 19.4177" stroke="#EEEEEE" stroke-width="2" stroke-linecap="round" stroke-linejoin="round"/>
<path d="M15.9514 6.39493L7.86252 11.1154" stroke="#EEEEEE" stroke-width="2" stroke-linecap="round" stroke-linejoin="round"/>
</svg>
