<svg width="78" height="55" viewBox="0 0 78 55" fill="none" xmlns="http://www.w3.org/2000/svg">
<path d="M5.83692 53V50.0085L12.8266 43.5366C13.4211 42.9613 13.9197 42.4435 14.3224 41.9833C14.7315 41.5231 15.0415 41.0724 15.2524 40.6314C15.4633 40.1839 15.5688 39.7013 15.5688 39.1836C15.5688 38.6083 15.4378 38.1129 15.1757 37.6974C14.9136 37.2756 14.5557 36.9528 14.1018 36.729C13.648 36.4989 13.1334 36.3839 12.5582 36.3839C11.9573 36.3839 11.4332 36.5053 10.9857 36.7482C10.5383 36.9911 10.1931 37.3395 9.9502 37.7933C9.70731 38.2472 9.58586 38.7873 9.58586 39.4137H5.64516C5.64516 38.1289 5.936 37.0135 6.51768 36.0675C7.09935 35.1214 7.91434 34.3896 8.96263 33.8718C10.0109 33.354 11.219 33.0952 12.5869 33.0952C13.9932 33.0952 15.2173 33.3445 16.2592 33.843C17.3074 34.3352 18.1224 35.0192 18.7041 35.8949C19.2858 36.7706 19.5766 37.7741 19.5766 38.9055C19.5766 39.647 19.4296 40.3789 19.1356 41.1012C18.8479 41.8235 18.3334 42.6257 17.5919 43.5078C16.8504 44.3835 15.8053 45.435 14.4566 46.6623L11.5898 49.4716V49.6058H19.8355V53H5.83692ZM30.246 53.4315C28.5968 53.4251 27.1778 53.0192 25.9889 52.2138C24.8063 51.4084 23.8955 50.2418 23.2563 48.7141C22.6235 47.1864 22.3103 45.3487 22.3166 43.201C22.3166 41.0597 22.6331 39.2347 23.2659 37.7262C23.9051 36.2177 24.8159 35.0703 25.9985 34.2841C27.1874 33.4915 28.6032 33.0952 30.246 33.0952C31.8887 33.0952 33.3014 33.4915 34.4839 34.2841C35.6728 35.0767 36.5869 36.2273 37.2261 37.7358C37.8653 39.2379 38.1817 41.0597 38.1753 43.201C38.1753 45.3551 37.8557 47.196 37.2165 48.7237C36.5837 50.2514 35.676 51.418 34.4935 52.2234C33.311 53.0288 31.8951 53.4315 30.246 53.4315ZM30.246 49.9893C31.371 49.9893 32.2691 49.4237 32.9402 48.2923C33.6114 47.1609 33.9438 45.4638 33.9374 43.201C33.9374 41.7116 33.784 40.4716 33.4772 39.4808C33.1767 38.4901 32.7485 37.7454 32.1924 37.2468C31.6426 36.7482 30.9938 36.4989 30.246 36.4989C29.1274 36.4989 28.2325 37.0582 27.5613 38.1768C26.8902 39.2955 26.5514 40.9702 26.545 43.201C26.545 44.7095 26.6952 45.9688 26.9956 46.9787C27.3024 47.9822 27.7339 48.7365 28.29 49.2415C28.8461 49.7401 29.4981 49.9893 30.246 49.9893ZM40.8386 53V50.0085L47.8283 43.5366C48.4228 42.9613 48.9214 42.4435 49.3241 41.9833C49.7332 41.5231 50.0432 41.0724 50.2541 40.6314C50.465 40.1839 50.5705 39.7013 50.5705 39.1836C50.5705 38.6083 50.4395 38.1129 50.1774 37.6974C49.9153 37.2756 49.5574 36.9528 49.1035 36.729C48.6497 36.4989 48.1351 36.3839 47.5599 36.3839C46.959 36.3839 46.4349 36.5053 45.9874 36.7482C45.54 36.9911 45.1948 37.3395 44.9519 37.7933C44.709 38.2472 44.5876 38.7873 44.5876 39.4137H40.6469C40.6469 38.1289 40.9377 37.0135 41.5194 36.0675C42.1011 35.1214 42.916 34.3896 43.9643 33.8718C45.0126 33.354 46.2207 33.0952 47.5886 33.0952C48.9949 33.0952 50.219 33.3445 51.2609 33.843C52.3092 34.3352 53.1241 35.0192 53.7058 35.8949C54.2875 36.7706 54.5783 37.7741 54.5783 38.9055C54.5783 39.647 54.4313 40.3789 54.1373 41.1012C53.8496 41.8235 53.3351 42.6257 52.5936 43.5078C51.8521 44.3835 50.807 45.435 49.4583 46.6623L46.5915 49.4716V49.6058H54.8372V53H40.8386ZM64.8066 53.2685C63.3748 53.2685 62.0996 53.0224 60.981 52.5302C59.8688 52.0316 58.9899 51.3477 58.3443 50.4783C57.7051 49.6026 57.3759 48.5927 57.3567 47.4485H61.5371C61.5627 47.9279 61.7193 48.3498 62.0069 48.7141C62.3009 49.0721 62.6909 49.3501 63.1767 49.5483C63.6625 49.7464 64.209 49.8455 64.8162 49.8455C65.449 49.8455 66.0083 49.7337 66.4941 49.5099C66.9799 49.2862 67.3603 48.9762 67.6351 48.5799C67.91 48.1836 68.0474 47.7266 68.0474 47.2088C68.0474 46.6847 67.9004 46.2212 67.6063 45.8185C67.3187 45.4094 66.9032 45.0898 66.3599 44.8597C65.823 44.6296 65.1838 44.5146 64.4423 44.5146H62.611V41.4656H64.4423C65.0687 41.4656 65.6216 41.3569 66.101 41.1396C66.5868 40.9222 66.9639 40.6218 67.2324 40.2383C67.5009 39.8484 67.6351 39.3945 67.6351 38.8768C67.6351 38.3846 67.5169 37.9531 67.2804 37.5824C67.0502 37.2053 66.7242 36.9112 66.3024 36.7003C65.8869 36.4893 65.4011 36.3839 64.845 36.3839C64.2825 36.3839 63.7679 36.4862 63.3013 36.6907C62.8347 36.8888 62.4608 37.1733 62.1795 37.544C61.8983 37.9148 61.748 38.3494 61.7289 38.848H57.7498C57.769 37.7166 58.0918 36.7195 58.7182 35.8565C59.3446 34.9936 60.1884 34.3192 61.2495 33.8335C62.3169 33.3413 63.5218 33.0952 64.8642 33.0952C66.2193 33.0952 67.405 33.3413 68.4213 33.8335C69.4377 34.3256 70.2271 34.9904 70.7896 35.8278C71.3585 36.6587 71.6397 37.592 71.6333 38.6275C71.6397 39.7269 71.2978 40.6442 70.6074 41.3793C69.9235 42.1143 69.0318 42.581 67.9323 42.7791V42.9325C69.3769 43.1179 70.4764 43.6197 71.2306 44.4379C71.9913 45.2496 72.3684 46.266 72.362 47.4869C72.3684 48.6055 72.0456 49.5994 71.3936 50.4688C70.748 51.3381 69.8563 52.022 68.7186 52.5206C67.5808 53.0192 66.2768 53.2685 64.8066 53.2685Z" fill="black"/>
<path d="M15.2075 0.0131082L15.1897 0C15.1558 0.0322826 15.1204 0.0628662 15.0893 0.0970906C14.2969 0.951488 13.4959 1.79836 12.7151 2.66222C11.3971 4.12004 10.1424 5.6264 9.04466 7.24976C8.07439 8.68403 7.25913 10.1935 6.69046 11.8213C6.28635 12.9788 6.0197 14.1621 6.00113 15.3893C5.98734 16.286 6.09696 17.1683 6.46269 17.9977C7.30203 19.9002 8.78554 21.0973 10.8274 21.6752C12.0222 22.0131 13.2448 22.0313 14.4685 21.9762C15.7443 21.9187 16.9933 21.6721 18.2287 21.3648C20.0849 20.9036 21.8725 20.2572 23.6314 19.5303C29.2469 17.2088 34.8624 14.8874 40.4781 12.566C45.5836 10.4552 50.6889 8.34413 55.7938 6.23273C60.3773 4.33704 64.9607 2.44094 69.544 0.544435C69.6962 0.481569 69.848 0.417004 70 0.35341C69.9722 0.342265 69.9413 0.340807 69.9125 0.349284C68.9969 0.583272 68.0814 0.817908 67.1662 1.05319C63.868 1.89917 60.57 2.74572 57.272 3.59284C54.4339 4.32215 51.5964 5.05227 48.7593 5.7832C45.8327 6.53565 42.9058 7.28811 39.9784 8.04056C37.7692 8.60805 35.56 9.17563 33.3505 9.74329C30.4943 10.4746 27.6379 11.2006 24.7851 11.9395C23.4373 12.2883 22.0872 12.6167 20.692 12.7373C19.5544 12.8356 18.4223 12.8317 17.2993 12.6028C16.1143 12.3601 15.0901 11.8419 14.2688 10.9659C13.2963 9.92897 12.8673 8.69301 12.8227 7.31529C12.7896 6.30506 12.9571 5.31911 13.2373 4.3499C13.668 2.86005 14.3242 1.46388 15.1375 0.134714C15.1618 0.0946645 15.1841 0.0536435 15.2075 0.0131082Z" fill="black"/>
</svg>
